HIERARCHY
ROOT Hips
{
    OFFSET 0.000000 0.000000 0.000000
    CHANNELS 6 Xposition Yposition Zposition Zrotation Xrotation Yrotation
    JOINT Spine
    {
        OFFSET -0.000000 8.167557 -0.000000
        CHANNELS 3 Zrotation Xrotation Yrotation
        JOINT Spine1
        {
            OFFSET 0.000002 23.859484 0.000002
            CHANNELS 3 Zrotation Xrotation Yrotation
            JOINT Neck
            {
                OFFSET -0.000002 27.221680 -0.000002
                CHANNELS 3 Zrotation Xrotation Yrotation
                JOINT Head
                {
                    OFFSET -0.000003 16.922937 2.035163
                    CHANNELS 3 Zrotation Xrotation Yrotation
                    End Site
                    {
                        OFFSET 0.000000 20.351660 0.000000
                    }
                }
            }
            JOINT LeftShoulder
            {
                OFFSET 4.036565 20.304848 -0.371913
                CHANNELS 3 Zrotation Xrotation Yrotation
                JOINT LeftArm
                {
                    OFFSET 12.502549 -0.000003 -0.000003
                    CHANNELS 3 Zrotation Xrotation Yrotation
                    JOINT LeftForeArm
                    {
                        OFFSET 31.806915 0.000006 -0.000012
                        CHANNELS 3 Zrotation Xrotation Yrotation
                        JOINT LeftHand
                        {
                            OFFSET 24.843237 0.000002 -0.000007
                            CHANNELS 3 Zrotation Xrotation Yrotation
                            JOINT LeftHandThumb1
                            {
                                OFFSET 2.126757 -2.416760 3.383455
                                CHANNELS 3 Zrotation Xrotation Yrotation
                                JOINT LeftHandThumb2
                                {
                                    OFFSET 3.212136 -0.000009 -0.000006
                                    CHANNELS 3 Zrotation Xrotation Yrotation
                                    JOINT LeftHandThumb3
                                    {
                                        OFFSET 2.745440 -0.000006 -0.000002
                                        CHANNELS 3 Zrotation Xrotation Yrotation
                                        End Site
                                        {
                                            OFFSET 2.793713 0.000000 0.000000
                                        }
                                    }
                                }
                            }
                            JOINT LeftHandIndex1
                            {
                                OFFSET 8.700332 -0.000004 3.383463
                                CHANNELS 3 Zrotation Xrotation Yrotation
                                JOINT LeftHandIndex2
                                {
                                    OFFSET 4.833524 0.000001 -0.000002
                                    CHANNELS 3 Zrotation Xrotation Yrotation
                                    JOINT LeftHandIndex3
                                    {
                                        OFFSET 2.416761 0.000001 -0.000002
                                        CHANNELS 3 Zrotation Xrotation Yrotation
                                        End Site
                                        {
                                            OFFSET 2.459254 0.000000 0.000000
                                        }
                                    }
                                }
                            }
                            JOINT LeftHandMiddle1
                            {
                                OFFSET 8.700328 -0.000007 1.121376
                                CHANNELS 3 Zrotation Xrotation Yrotation
                                JOINT LeftHandMiddle2
                                {
                                    OFFSET 5.316872 -0.000003 -0.000004
                                    CHANNELS 3 Zrotation Xrotation Yrotation
                                    JOINT LeftHandMiddle3
                                    {
                                        OFFSET 2.900109 -0.000003 -0.000003
                                        CHANNELS 3 Zrotation Xrotation Yrotation
                                        End Site
                                        {
                                            OFFSET 2.951103 0.000000 0.000000
                                        }
                                    }
                                }
                            }
                            JOINT LeftHandRing1
                            {
                                OFFSET 8.216985 -0.000001 -1.121383
                                CHANNELS 3 Zrotation Xrotation Yrotation
                                JOINT LeftHandRing2
                                {
                                    OFFSET 4.833525 0.000001 -0.000003
                                    CHANNELS 3 Zrotation Xrotation Yrotation
                                    JOINT LeftHandRing3
                                    {
                                        OFFSET 2.416762 0.000002 -0.000002
                                        CHANNELS 3 Zrotation Xrotation Yrotation
                                        End Site
                                        {
                                            OFFSET 2.459254 0.000000 0.000000
                                        }
                                    }
                                }
                            }
                            JOINT LeftHandPinky1
                            {
                                OFFSET 7.733633 0.000000 -3.383469
                                CHANNELS 3 Zrotation Xrotation Yrotation
                                JOINT LeftHandPinky2
                                {
                                    OFFSET 3.866806 -0.000004 0.000003
                                    CHANNELS 3 Zrotation Xrotation Yrotation
                                    JOINT LeftHandPinky3
                                    {
                                        OFFSET 1.933414 0.000006 0.000000
                                        CHANNELS 3 Zrotation Xrotation Yrotation
                                        End Site
                                        {
                                            OFFSET 1.967405 0.000000 0.000000
                                        }
                                    }
                                }
                            }
                        }
                    }
                }
            }
            JOINT RightShoulder
            {
                OFFSET -4.036565 20.304853 -0.371906
                CHANNELS 3 Zrotation Xrotation Yrotation
                JOINT RightArm
                {
                    OFFSET -12.502551 -0.000001 0.000004
                    CHANNELS 3 Zrotation Xrotation Yrotation
                    JOINT RightForeArm
                    {
                        OFFSET -31.806915 0.000000 0.000012
                        CHANNELS 3 Zrotation Xrotation Yrotation
                        JOINT RightHand
                        {
                            OFFSET -24.843229 0.000004 0.000006
                            CHANNELS 3 Zrotation Xrotation Yrotation
                            JOINT RightHandThumb1
                            {
                                OFFSET -2.126750 -2.416763 3.383456
                                CHANNELS 3 Zrotation Xrotation Yrotation
                                JOINT RightHandThumb2
                                {
                                    OFFSET -3.212134 0.000001 -0.000003
                                    CHANNELS 3 Zrotation Xrotation Yrotation
                                    JOINT RightHandThumb3
                                    {
                                        OFFSET -2.745439 0.000001 0.000004
                                        CHANNELS 3 Zrotation Xrotation Yrotation
                                        End Site
                                        {
                                            OFFSET -2.793713 0.000000 0.000000
                                        }
                                    }
                                }
                            }
                            JOINT RightHandIndex1
                            {
                                OFFSET -8.700332 -0.000004 3.383471
                                CHANNELS 3 Zrotation Xrotation Yrotation
                                JOINT RightHandIndex2
                                {
                                    OFFSET -4.833519 -0.000003 0.000009
                                    CHANNELS 3 Zrotation Xrotation Yrotation
                                    JOINT RightHandIndex3
                                    {
                                        OFFSET -2.416762 0.000000 -0.000007
                                        CHANNELS 3 Zrotation Xrotation Yrotation
                                        End Site
                                        {
                                            OFFSET -2.459254 0.000000 0.000000
                                        }
                                    }
                                }
                            }
                            JOINT RightHandMiddle1
                            {
                                OFFSET -8.700335 -0.000001 1.121369
                                CHANNELS 3 Zrotation Xrotation Yrotation
                                JOINT RightHandMiddle2
                                {
                                    OFFSET -5.316872 0.000003 -0.000011
                                    CHANNELS 3 Zrotation Xrotation Yrotation
                                    JOINT RightHandMiddle3
                                    {
                                        OFFSET -2.900113 0.000002 -0.000003
                                        CHANNELS 3 Zrotation Xrotation Yrotation
                                        End Site
                                        {
                                            OFFSET -2.951103 0.000000 0.000000
                                        }
                                    }
                                }
                            }
                            JOINT RightHandRing1
                            {
                                OFFSET -8.216978 0.000003 -1.121373
                                CHANNELS 3 Zrotation Xrotation Yrotation
                                JOINT RightHandRing2
                                {
                                    OFFSET -4.833519 -0.000005 0.000008
                                    CHANNELS 3 Zrotation Xrotation Yrotation
                                    JOINT RightHandRing3
                                    {
                                        OFFSET -2.416759 0.000000 -0.000008
                                        CHANNELS 3 Zrotation Xrotation Yrotation
                                        End Site
                                        {
                                            OFFSET -2.459254 0.000000 0.000000
                                        }
                                    }
                                }
                            }
                            JOINT RightHandPinky1
                            {
                                OFFSET -7.733627 -0.000002 -3.383456
                                CHANNELS 3 Zrotation Xrotation Yrotation
                                JOINT RightHandPinky2
                                {
                                    OFFSET -3.866812 0.000002 0.000004
                                    CHANNELS 3 Zrotation Xrotation Yrotation
                                    JOINT RightHandPinky3
                                    {
                                        OFFSET -1.933411 0.000002 -0.000010
                                        CHANNELS 3 Zrotation Xrotation Yrotation
                                        End Site
                                        {
                                            OFFSET -1.967405 0.000000 0.000000
                                        }
                                    }
                                }
                            }
                        }
                    }
                }
            }
        }
    }
    JOINT LeftUpLeg
    {
        OFFSET 10.175833 -0.000000 0.000007
        CHANNELS 3 Zrotation Xrotation Yrotation
        JOINT LeftLeg
        {
            OFFSET 0.000006 -42.882954 0.000007
            CHANNELS 3 Zrotation Xrotation Yrotation
            JOINT LeftFoot
            {
                OFFSET 0.000004 -39.006771 0.000007
                CHANNELS 3 Zrotation Xrotation Yrotation
                JOINT LeftToeBase
                {
                    OFFSET -0.000001 -6.614287 15.263733
                    CHANNELS 3 Zrotation Xrotation Yrotation
                    End Site
                    {
                        OFFSET 0.000000 0.000000 4.070332
                    }
                }
            }
        }
    }
    JOINT RightUpLeg
    {
        OFFSET -10.175833 0.000000 -0.000007
        CHANNELS 3 Zrotation Xrotation Yrotation
        JOINT RightLeg
        {
            OFFSET 0.000001 -42.882950 0.000001
            CHANNELS 3 Zrotation Xrotation Yrotation
            JOINT RightFoot
            {
                OFFSET -0.000005 -39.006771 -0.000006
                CHANNELS 3 Zrotation Xrotation Yrotation
                JOINT RightToeBase
                {
                    OFFSET -0.000005 -6.614288 15.263737
                    CHANNELS 3 Zrotation Xrotation Yrotation
                    End Site
                    {
                        OFFSET 0.000000 0.000000 4.070332
                    }
                }
            }
        }
    }
}
MOTION
Frames:    4
Frame Time:    0.002778
-7.120420    85.041313    216.633301    6.647755    -4.313643    -23.272558    0.251293    7.375206    1.057145    1.256448    7.373518    0.928133    3.335147    5.298170    3.351715    3.335145    5.298170    3.351722    -7.606526    -0.597904    -0.872965    -50.678490    28.014427    -24.412512    -10.230333    0.599697    -135.107254    16.783838    7.162548    22.705770    47.448219    38.866444    -34.355049    -34.999996    0.000002    -0.000001    -0.000000    0.000000    -0.000000    -0.000003    10.000010    -0.000003    -0.000000    0.000000    -0.000000    -0.000000    0.000000    -0.000000    -0.000000    0.000000    -0.000000    -0.000000    0.000000    -0.000000    -0.000000    0.000000    -0.000000    -0.000000    0.000000    -0.000000    -0.000000    0.000000    -0.000000    -0.000000    0.000000    -0.000000    -0.000003    -9.999991    -0.000000    -0.000000    0.000000    -0.000000    -0.000000    0.000000    -0.000000    -0.484233    -4.750830    7.642631    35.761555    10.856062    36.596119    -27.054909    -17.157246    67.743752    0.018775    0.264751    -42.821911    -47.448208    38.866432    34.355026    34.999996    0.000001    0.000004    -0.000000    0.000000    -0.000000    0.000001    9.999998    -0.000003    -0.000000    0.000000    -0.000000    -0.000000    0.000000    -0.000000    -0.000000    0.000000    -0.000000    -0.000000    0.000000    -0.000000    -0.000000    0.000000    -0.000000    -0.000000    0.000000    -0.000000    -0.000000    0.000000    -0.000000    -0.000000    0.000000    -0.000000    0.000005    -10.000000    0.000001    -0.000000    0.000000    -0.000000    -0.000000    0.000000    -0.000000    9.689704    -9.128720    -4.340995    -0.000005    46.705544    0.000005    -20.192249    -34.197098    12.599340    0.000000    -0.313744    -0.000000    -16.875444    -32.303783    -5.541740    -0.000001    67.329163    0.000005    5.914338    -29.719419    -4.137183    0.000000    -1.349958    -0.000003    
-7.135453    85.137054    216.551208    6.743906    -4.195162    -23.024517    0.248828    7.329700    1.273154    1.244139    7.328060    1.146178    3.307119    5.197642    3.129629    3.307123    5.197644    3.129627    -7.633019    -0.638627    -0.958538    -50.599010    27.967176    -24.521317    -10.075032    0.470717    -135.082458    16.788357    7.185044    22.756592    47.448219    38.866432    -34.355022    -34.999996    0.000001    -0.000001    -0.000000    0.000000    -0.000000    0.000006    9.999992    0.000005    -0.000000    0.000000    -0.000000    -0.000000    0.000000    -0.000000    -0.000000    0.000000    -0.000000    -0.000000    0.000000    -0.000000    -0.000000    0.000000    -0.000000    -0.000000    0.000000    -0.000000    -0.000000    0.000000    -0.000000    -0.000000    0.000000    -0.000000    0.000005    -10.000002    0.000000    -0.000000    0.000000    -0.000000    -0.000000    0.000000    -0.000000    -0.592651    -4.817393    7.711162    35.354717    10.077731    37.186333    -26.552984    -16.878342    67.434227    -0.016078    0.288169    -42.682816    -47.448208    38.866432    34.355026    34.999992    0.000005    0.000011    -0.000000    0.000000    -0.000000    -0.000002    9.999998    -0.000001    -0.000000    0.000000    -0.000000    -0.000000    0.000000    -0.000000    -0.000000    0.000000    -0.000000    -0.000000    0.000000    -0.000000    -0.000000    0.000000    -0.000000    -0.000000    0.000000    -0.000000    -0.000000    0.000000    -0.000000    -0.000000    0.000000    -0.000000    -0.000002    -9.999999    -0.000002    -0.000000    0.000000    -0.000000    -0.000000    0.000000    -0.000000    9.697921    -9.272091    -4.356622    -0.000007    46.394810    0.000005    -20.173815    -33.905777    12.538226    -0.000001    -0.298223    0.000000    -16.913240    -32.292801    -5.623195    0.000001    67.104942    -0.000002    5.902538    -29.631378    -4.325304    0.000000    -1.344670    0.000001    
-7.150361    85.229515    216.469330    6.837432    -4.075016    -22.779358    0.245220    7.286655    1.493347    1.226094    7.285070    1.368954    3.289840    5.086341    2.899860    3.289831    5.086337    2.899861    -7.667434    -0.673867    -1.061224    -50.505035    27.967968    -24.651596    -9.946457    0.352780    -135.076950    16.792765    7.207304    22.807728    47.448223    38.866455    -34.355053    -35.000000    -0.000005    0.000002    -0.000000    0.000000    -0.000000    0.000000    10.000010    -0.000005    -0.000000    0.000000    -0.000000    -0.000000    0.000000    -0.000000    -0.000000    0.000000    -0.000000    -0.000000    0.000000    -0.000000    -0.000000    0.000000    -0.000000    -0.000000    0.000000    -0.000000    -0.000000    0.000000    -0.000000    -0.000000    0.000000    -0.000000    0.000000    -9.999994    0.000000    -0.000000    0.000000    -0.000000    -0.000000    0.000000    -0.000000    -0.663884    -4.895469    7.804957    35.016415    9.265597    37.770233    -26.105490    -16.593750    67.070221    -0.095175    0.352874    -42.595215    -47.448212    38.866428    34.355045    34.999996    -0.000002    -0.000002    -0.000000    0.000000    -0.000000    0.000001    9.999997    0.000006    -0.000000    0.000000    -0.000000    -0.000000    0.000000    -0.000000    -0.000000    0.000000    -0.000000    -0.000000    0.000000    -0.000000    -0.000000    0.000000    -0.000000    -0.000000    0.000000    -0.000000    -0.000000    0.000000    -0.000000    -0.000000    0.000000    -0.000000    0.000004    -10.000001    0.000004    -0.000000    0.000000    -0.000000    -0.000000    0.000000    -0.000000    9.708817    -9.415421    -4.371908    0.000001    46.087574    0.000001    -20.162197    -33.622223    12.469669    0.000000    -0.284420    -0.000000    -16.946993    -32.283478    -5.698833    0.000009    66.882729    -0.000011    5.892954    -29.545734    -4.514997    -0.000000    -1.338686    -0.000009    
-7.164150    85.322655    216.387222    6.928626    -3.953682    -22.537271    0.242466    7.243016    1.714960    1.212309    7.241477    1.592703    3.263146    4.984588    2.669321    3.263149    4.984593    2.669320    -7.708390    -0.702528    -1.164901    -50.409359    27.958635    -24.781734    -9.839063    0.250244    -135.069138    16.793943    7.238575    22.888914    47.448219    38.866428    -34.355030    -35.000004    -0.000000    -0.000003    -0.000000    0.000000    -0.000000    0.000000    10.000007    -0.000002    -0.000000    0.000000    -0.000000    -0.000000    0.000000    -0.000000    -0.000000    0.000000    -0.000000    -0.000000    0.000000    -0.000000    -0.000000    0.000000    -0.000000    -0.000000    0.000000    -0.000000    -0.000000    0.000000    -0.000000    -0.000000    0.000000    -0.000000    0.000002    -10.000004    0.000002    -0.000000    0.000000    -0.000000    -0.000000    0.000000    -0.000000    -0.710817    -4.975540    7.907021    34.746281    8.434837    38.349911    -25.754230    -16.325533    66.620613    -0.155337    0.399697    -42.394283    -47.448208    38.866432    34.355022    34.999992    0.000002    0.000002    -0.000000    0.000000    -0.000000    0.000002    10.000001    0.000002    -0.000000    0.000000    -0.000000    -0.000000    0.000000    -0.000000    -0.000000    0.000000    -0.000000    -0.000000    0.000000    -0.000000    -0.000000    0.000000    -0.000000    -0.000000    0.000000    -0.000000    -0.000000    0.000000    -0.000000    -0.000000    0.000000    -0.000000    -0.000004    -9.999992    -0.000007    -0.000000    0.000000    -0.000000    -0.000000    0.000000    -0.000000    9.718588    -9.556315    -4.390911    0.000003    45.776184    -0.000002    -20.150732    -33.335850    12.407939    -0.000000    -0.267677    0.000001    -16.978302    -32.276283    -5.772730    0.000004    66.658859    -0.000006    5.875228    -29.461529    -4.706487    0.000000    -1.327248    0.000008    
